<svg xmlns="http://www.w3.org/2000/svg" style="display: none;">
  <!-- Notification Icons -->
  <symbol id="icon-success" viewBox="0 0 24 24" fill="none" stroke="currentColor">
    <path stroke-linecap="round" stroke-linejoin="round" stroke-width="2" d="M5 13l4 4L19 7"></path>
  </symbol>
  
  <symbol id="icon-error" viewBox="0 0 24 24" fill="none" stroke="currentColor">
    <path stroke-linecap="round" stroke-linejoin="round" stroke-width="2" d="M6 18L18 6M6 6l12 12"></path>
  </symbol>
  
  <symbol id="icon-info" viewBox="0 0 24 24" fill="none" stroke="currentColor">
    <path stroke-linecap="round" stroke-linejoin="round" stroke-width="2" d="M13 16h-1v-4h-1m1-4h.01M21 12a9 9 0 11-18 0 9 9 0 0118 0z"></path>
  </symbol>
  
  <symbol id="icon-warning" viewBox="0 0 24 24" fill="none" stroke="currentColor">
    <path stroke-linecap="round" stroke-linejoin="round" stroke-width="2" d="M12 9v2m0 4h.01m-6.938 4h13.856c1.54 0 2.502-1.667 1.732-3L13.732 4c-.77-1.333-2.694-1.333-3.464 0L3.34 16c-.77 1.333.192 3 1.732 3z"></path>
  </symbol>
  
  <!-- UI Icons -->
  <symbol id="icon-close" viewBox="0 0 24 24" fill="none" stroke="currentColor">
    <path stroke-linecap="round" stroke-linejoin="round" stroke-width="2" d="M6 18L18 6M6 6l12 12"></path>
  </symbol>
  
  <symbol id="icon-search" viewBox="0 0 24 24" fill="none" stroke="currentColor">
    <path stroke-linecap="round" stroke-linejoin="round" stroke-width="2" d="M21 21l-6-6m2-5a7 7 0 11-14 0 7 7 0 0114 0z"></path>
  </symbol>
  
  <symbol id="icon-refresh" viewBox="0 0 24 24" fill="none" stroke="currentColor">
    <path stroke-linecap="round" stroke-linejoin="round" stroke-width="2" d="M4 4v5h.582m15.356 2A8.001 8.001 0 004.582 9m0 0H9m11 11v-5h-.581m0 0a8.003 8.003 0 01-15.357-2m15.357 2H15"></path>
  </symbol>
  
  <!-- Sort Icons -->
  <symbol id="icon-sort-unsorted" viewBox="0 0 24 24" fill="none" stroke="currentColor">
    <path stroke-linecap="round" stroke-linejoin="round" stroke-width="2" d="M7 16V4m0 0L3 8m4-4l4 4m6 0v12m0 0l4-4m-4 4l-4-4"></path>
  </symbol>
  
  <symbol id="icon-sort-asc" viewBox="0 0 24 24" fill="none" stroke="currentColor">
    <path stroke-linecap="round" stroke-linejoin="round" stroke-width="2" d="M3 4h13M3 8h9m-9 4h6m4 0l4-4m0 0l4 4m-4-4v12"></path>
  </symbol>
  
  <symbol id="icon-sort-desc" viewBox="0 0 24 24" fill="none" stroke="currentColor">
    <path stroke-linecap="round" stroke-linejoin="round" stroke-width="2" d="M3 4h13M3 8h9m-9 4h9m5-4v12m0 0l-4-4m4 4l4-4"></path>
  </symbol>
  
  <!-- Data Icons -->
  <symbol id="icon-empty-inbox" viewBox="0 0 24 24" fill="none" stroke="currentColor">
    <path stroke-linecap="round" stroke-linejoin="round" stroke-width="2" d="M20 13V6a2 2 0 00-2-2H6a2 2 0 00-2 2v7m16 0v5a2 2 0 01-2 2H6a2 2 0 01-2-2v-5m16 0h-2.586a1 1 0 00-.707.293l-2.414 2.414a1 1 0 01-.707.293h-3.172a1 1 0 01-.707-.293l-2.414-2.414A1 1 0 006.586 13H4"></path>
  </symbol>
  
  <!-- User Icons -->
  <symbol id="icon-user" viewBox="0 0 24 24" fill="none" stroke="currentColor">
    <path stroke-linecap="round" stroke-linejoin="round" stroke-width="2" d="M16 7a4 4 0 11-8 0 4 4 0 018 0zM12 14a7 7 0 00-7 7h14a7 7 0 00-7-7z"></path>
  </symbol>
  
  <symbol id="icon-users" viewBox="0 0 24 24" fill="none" stroke="currentColor">
    <path stroke-linecap="round" stroke-linejoin="round" stroke-width="2" d="M12 4.354a4 4 0 110 5.292M15 21H3v-1a6 6 0 0112 0v1zm0 0h6v-1a6 6 0 00-9-5.197M13 7a4 4 0 11-8 0 4 4 0 018 0z"></path>
  </symbol>
  
  <!-- Contact Icons -->
  <symbol id="icon-mail" viewBox="0 0 24 24" fill="none" stroke="currentColor">
    <path stroke-linecap="round" stroke-linejoin="round" stroke-width="2" d="M3 8l7.89 5.26a2 2 0 002.22 0L21 8M5 19h14a2 2 0 002-2V7a2 2 0 00-2-2H5a2 2 0 00-2 2v10a2 2 0 002 2z"></path>
  </symbol>
  
  <symbol id="icon-briefcase" viewBox="0 0 24 24" fill="none" stroke="currentColor">
    <path stroke-linecap="round" stroke-linejoin="round" stroke-width="2" d="M21 13.255A23.931 23.931 0 0112 15c-3.183 0-6.22-.62-9-1.745M16 6V4a2 2 0 00-2-2h-4a2 2 0 00-2 2v2m4 6h.01M5 20h14a2 2 0 002-2V8a2 2 0 00-2-2H5a2 2 0 00-2 2v10a2 2 0 002 2z"></path>
  </symbol>
  
  <symbol id="icon-location" viewBox="0 0 24 24" fill="none" stroke="currentColor">
    <path stroke-linecap="round" stroke-linejoin="round" stroke-width="2" d="M17.657 16.657L13.414 20.9a1.998 1.998 0 01-2.827 0l-4.244-4.243a8 8 0 1111.314 0z"></path>
    <path stroke-linecap="round" stroke-linejoin="round" stroke-width="2" d="M15 11a3 3 0 11-6 0 3 3 0 016 0z"></path>
  </symbol>
  
  <!-- Action Icons -->
  <symbol id="icon-trash" viewBox="0 0 24 24" fill="none" stroke="currentColor">
    <path stroke-linecap="round" stroke-linejoin="round" stroke-width="2" d="M19 7l-.867 12.142A2 2 0 0116.138 21H7.862a2 2 0 01-1.995-1.858L5 7m5 4v6m4-6v6m1-10V4a1 1 0 00-1-1h-4a1 1 0 00-1 1v3M4 7h16"></path>
  </symbol>
  
  <symbol id="icon-edit" viewBox="0 0 24 24" fill="none" stroke="currentColor">
    <path stroke-linecap="round" stroke-linejoin="round" stroke-width="2" d="M11 5H6a2 2 0 00-2 2v11a2 2 0 002 2h11a2 2 0 002-2v-5m-1.414-9.414a2 2 0 112.828 2.828L11.828 15H9v-2.828l8.586-8.586z"></path>
  </symbol>
  
  <!-- Navigation Icons -->
  <symbol id="icon-chevron-left" viewBox="0 0 20 20" fill="currentColor">
    <path fill-rule="evenodd" d="M12.707 5.293a1 1 0 010 1.414L9.414 10l3.293 3.293a1 1 0 01-1.414 1.414l-4-4a1 1 0 010-1.414l4-4a1 1 0 011.414 0z" clip-rule="evenodd"></path>
  </symbol>
  
  <symbol id="icon-chevron-right" viewBox="0 0 20 20" fill="currentColor">
    <path fill-rule="evenodd" d="M7.293 14.707a1 1 0 010-1.414L10.586 10 7.293 6.707a1 1 0 011.414-1.414l4 4a1 1 0 010 1.414l-4 4a1 1 0 01-1.414 0z" clip-rule="evenodd"></path>
  </symbol>
  
  <!-- Info Filled -->
  <symbol id="icon-info-filled" viewBox="0 0 20 20" fill="currentColor">
    <path fill-rule="evenodd" d="M18 10a8 8 0 11-16 0 8 8 0 0116 0zm-7-4a1 1 0 11-2 0 1 1 0 012 0zM9 9a1 1 0 000 2v3a1 1 0 001 1h1a1 1 0 100-2v-3a1 1 0 00-1-1H9z" clip-rule="evenodd"></path>
  </symbol>
</svg>